# Blender v2.91.0 OBJ File: 'wedge.blend'
# www.blender.org
mtllib wedge.mtl
o Cube
v 0.487271 1.000000 -0.487271
v 1.000000 0.000000 -1.000000
v 0.487271 1.000000 0.487271
v 1.000000 0.000000 1.000000
v -0.487271 1.000000 -0.487271
v -1.000000 0.000000 -1.000000
v -0.487271 1.000000 0.487271
v -1.000000 0.000000 1.000000
vt 0.401816 0.401816
vt 0.215197 0.401816
vt 0.215197 0.215197
vt 0.401816 0.215197
vt 0.500000 0.000000
vt 0.117013 0.000000
vt 0.000000 0.117013
vt 0.000000 0.500000
vt 0.000000 1.000000
vt 0.000000 0.617013
vt 0.382987 0.617013
vt 0.382987 1.000000
vt 0.617013 0.500000
vt 0.617013 0.117013
vt 0.117013 0.617013
vt 0.500000 0.617013
vn 0.0000 1.0000 0.0000
vn 0.0000 0.4563 0.8899
vn -0.8899 0.4563 0.0000
vn 0.0000 -1.0000 0.0000
vn 0.8899 0.4563 0.0000
vn 0.0000 0.4563 -0.8899
usemtl Material
s off
f 1/1/1 5/2/1 7/3/1 3/4/1
f 4/5/2 3/4/2 7/3/2 8/6/2
f 8/7/3 7/3/3 5/2/3 6/8/3
f 6/9/4 2/10/4 4/11/4 8/12/4
f 2/13/5 1/1/5 3/4/5 4/14/5
f 6/15/6 5/2/6 1/1/6 2/16/6
